%TF.GenerationSoftware,KiCad,Pcbnew,10.0.4*%
%TF.CreationDate,2026-07-06T10:54:50+05:30*%
%TF.ProjectId,esp32_bno085_shield,65737033-325f-4626-9e6f-3038355f7368,rev?*%
%TF.SameCoordinates,Original*%
%TF.FileFunction,Soldermask,Top*%
%TF.FilePolarity,Negative*%
%FSLAX46Y46*%
G04 Gerber Fmt 4.6, Leading zero omitted, Abs format (unit mm)*
G04 Created by KiCad (PCBNEW 10.0.4) date 2026-07-06 10:54:50*
%MOMM*%
%LPD*%
G01*
G04 APERTURE LIST*
G04 Aperture macros list*
%AMRoundRect*
0 Rectangle with rounded corners*
0 $1 Rounding radius*
0 $2 $3 $4 $5 $6 $7 $8 $9 X,Y pos of 4 corners*
0 Add a 4 corners polygon primitive as box body*
4,1,4,$2,$3,$4,$5,$6,$7,$8,$9,$2,$3,0*
0 Add four circle primitives for the rounded corners*
1,1,$1+$1,$2,$3*
1,1,$1+$1,$4,$5*
1,1,$1+$1,$6,$7*
1,1,$1+$1,$8,$9*
0 Add four rect primitives between the rounded corners*
20,1,$1+$1,$2,$3,$4,$5,0*
20,1,$1+$1,$4,$5,$6,$7,0*
20,1,$1+$1,$6,$7,$8,$9,0*
20,1,$1+$1,$8,$9,$2,$3,0*%
G04 Aperture macros list end*
%ADD10C,3.200000*%
%ADD11RoundRect,0.250000X-0.262500X-0.450000X0.262500X-0.450000X0.262500X0.450000X-0.262500X0.450000X0*%
%ADD12RoundRect,0.243750X-0.243750X-0.456250X0.243750X-0.456250X0.243750X0.456250X-0.243750X0.456250X0*%
%ADD13RoundRect,0.250000X-0.250000X-0.475000X0.250000X-0.475000X0.250000X0.475000X-0.250000X0.475000X0*%
%ADD14RoundRect,0.225000X-0.225000X-0.250000X0.225000X-0.250000X0.225000X0.250000X-0.225000X0.250000X0*%
%ADD15O,1.900000X1.524000*%
%ADD16C,3.404000*%
%ADD17C,1.982000*%
G04 APERTURE END LIST*
D10*
%TO.C,H1*%
X132500000Y-109500000D03*
%TD*%
D11*
%TO.C,R1*%
X106220000Y-60235000D03*
X108045000Y-60235000D03*
%TD*%
D10*
%TO.C,H4*%
X63000000Y-109500000D03*
%TD*%
%TO.C,H3*%
X132500000Y-52000000D03*
%TD*%
%TO.C,H2*%
X63000000Y-52000000D03*
%TD*%
D12*
%TO.C,D1*%
X104220000Y-64235000D03*
X106095000Y-64235000D03*
%TD*%
D13*
%TO.C,C3*%
X103220000Y-54235000D03*
X101320000Y-54235000D03*
%TD*%
D14*
%TO.C,C1*%
X103000000Y-57490000D03*
X101450000Y-57490000D03*
%TD*%
%TO.C,C2*%
X103000000Y-60000000D03*
X101450000Y-60000000D03*
%TD*%
D15*
%TO.C,U2*%
X68502460Y-96519813D03*
X68502460Y-93979813D03*
X68502460Y-91439813D03*
X68502460Y-88899813D03*
X68502460Y-86359813D03*
X68502460Y-83819813D03*
X68502460Y-81279813D03*
X68502460Y-78739813D03*
X68502460Y-76199813D03*
X68502460Y-73659813D03*
X68502460Y-71119813D03*
X68502460Y-68579813D03*
X68502460Y-66039813D03*
X68502460Y-63499813D03*
X68502460Y-60959813D03*
X93902460Y-96519813D03*
X93902460Y-93979813D03*
X93902460Y-91439813D03*
X93902460Y-88899813D03*
X93902460Y-86359813D03*
X93902460Y-83819813D03*
X93902460Y-81279813D03*
X93902460Y-78739813D03*
X93902460Y-76199813D03*
X93902460Y-73659813D03*
X93902460Y-71119813D03*
X93902460Y-68579813D03*
X93902460Y-66039813D03*
X93902460Y-63499813D03*
X93902460Y-60959813D03*
%TD*%
D16*
%TO.C,U1*%
X128820000Y-89280000D03*
X108500000Y-89280000D03*
X128820000Y-71500000D03*
X108500000Y-71500000D03*
D17*
X125010000Y-71500000D03*
X122470000Y-71500000D03*
X119930000Y-71500000D03*
X117390000Y-71500000D03*
X114850000Y-71500000D03*
X112310000Y-71500000D03*
X125010000Y-89280000D03*
X122470000Y-89280000D03*
X119930000Y-89280000D03*
X117390000Y-89280000D03*
X114850000Y-89280000D03*
X112310000Y-89280000D03*
%TD*%
M02*
