%TF.GenerationSoftware,KiCad,Pcbnew,10.0.4*%
%TF.CreationDate,2026-07-06T10:54:50+05:30*%
%TF.ProjectId,esp32_bno085_shield,65737033-325f-4626-9e6f-3038355f7368,rev?*%
%TF.SameCoordinates,Original*%
%TF.FileFunction,Copper,L1,Top*%
%TF.FilePolarity,Positive*%
%FSLAX46Y46*%
G04 Gerber Fmt 4.6, Leading zero omitted, Abs format (unit mm)*
G04 Created by KiCad (PCBNEW 10.0.4) date 2026-07-06 10:54:50*
%MOMM*%
%LPD*%
G01*
G04 APERTURE LIST*
G04 Aperture macros list*
%AMRoundRect*
0 Rectangle with rounded corners*
0 $1 Rounding radius*
0 $2 $3 $4 $5 $6 $7 $8 $9 X,Y pos of 4 corners*
0 Add a 4 corners polygon primitive as box body*
4,1,4,$2,$3,$4,$5,$6,$7,$8,$9,$2,$3,0*
0 Add four circle primitives for the rounded corners*
1,1,$1+$1,$2,$3*
1,1,$1+$1,$4,$5*
1,1,$1+$1,$6,$7*
1,1,$1+$1,$8,$9*
0 Add four rect primitives between the rounded corners*
20,1,$1+$1,$2,$3,$4,$5,0*
20,1,$1+$1,$4,$5,$6,$7,0*
20,1,$1+$1,$6,$7,$8,$9,0*
20,1,$1+$1,$8,$9,$2,$3,0*%
G04 Aperture macros list end*
%TA.AperFunction,SMDPad,CuDef*%
%ADD10RoundRect,0.250000X-0.262500X-0.450000X0.262500X-0.450000X0.262500X0.450000X-0.262500X0.450000X0*%
%TD*%
%TA.AperFunction,SMDPad,CuDef*%
%ADD11RoundRect,0.243750X-0.243750X-0.456250X0.243750X-0.456250X0.243750X0.456250X-0.243750X0.456250X0*%
%TD*%
%TA.AperFunction,SMDPad,CuDef*%
%ADD12RoundRect,0.250000X-0.250000X-0.475000X0.250000X-0.475000X0.250000X0.475000X-0.250000X0.475000X0*%
%TD*%
%TA.AperFunction,SMDPad,CuDef*%
%ADD13RoundRect,0.225000X-0.225000X-0.250000X0.225000X-0.250000X0.225000X0.250000X-0.225000X0.250000X0*%
%TD*%
%TA.AperFunction,ComponentPad*%
%ADD14O,1.900000X1.524000*%
%TD*%
%TA.AperFunction,ComponentPad*%
%ADD15C,3.200000*%
%TD*%
%TA.AperFunction,ComponentPad*%
%ADD16C,1.778000*%
%TD*%
%TA.AperFunction,Conductor*%
%ADD17C,0.200000*%
%TD*%
G04 APERTURE END LIST*
D10*
%TO.P,R1,1*%
%TO.N,Net-(D1-A)*%
X106220000Y-60235000D03*
%TO.P,R1,2*%
%TO.N,Net-(U1-VIN)*%
X108045000Y-60235000D03*
%TD*%
D11*
%TO.P,D1,1,K_1*%
%TO.N,GND*%
X104220000Y-64235000D03*
%TO.P,D1,2,A_2*%
%TO.N,Net-(D1-A)*%
X106095000Y-64235000D03*
%TD*%
D12*
%TO.P,C3,2*%
%TO.N,GND*%
X103220000Y-54235000D03*
%TO.P,C3,1*%
%TO.N,Net-(U1-VIN)*%
X101320000Y-54235000D03*
%TD*%
D13*
%TO.P,C1,2*%
%TO.N,GND*%
X103000000Y-57490000D03*
%TO.P,C1,1*%
%TO.N,Net-(U1-VIN)*%
X101450000Y-57490000D03*
%TD*%
%TO.P,C2,2*%
%TO.N,GND*%
X103000000Y-60000000D03*
%TO.P,C2,1*%
%TO.N,Net-(U1-VIN)*%
X101450000Y-60000000D03*
%TD*%
D14*
%TO.P,U2,1,VIN_1*%
%TO.N,unconnected-(U2-VIN-Pad1)*%
X68502460Y-96519813D03*
%TO.P,U2,2,GND_2*%
%TO.N,unconnected-(U2-GND-Pad2)*%
X68502460Y-93979813D03*
%TO.P,U2,3,GPIO13_3*%
%TO.N,unconnected-(U2-GPIO13-Pad3)*%
X68502460Y-91439813D03*
%TO.P,U2,4,GPIO12_4*%
%TO.N,unconnected-(U2-GPIO12-Pad4)*%
X68502460Y-88899813D03*
%TO.P,U2,5,GPIO14_5*%
%TO.N,unconnected-(U2-GPIO14-Pad5)*%
X68502460Y-86359813D03*
%TO.P,U2,6,GPIO27_6*%
%TO.N,unconnected-(U2-GPIO27-Pad6)*%
X68502460Y-83819813D03*
%TO.P,U2,7,GPIO26_7*%
%TO.N,unconnected-(U2-GPIO26-Pad7)*%
X68502460Y-81279813D03*
%TO.P,U2,8,GPIO25_8*%
%TO.N,unconnected-(U2-GPIO25-Pad8)*%
X68502460Y-78739813D03*
%TO.P,U2,9,GPIO33_9*%
%TO.N,unconnected-(U2-GPIO33-Pad9)*%
X68502460Y-76199813D03*
%TO.P,U2,10,GPIO32_10*%
%TO.N,unconnected-(U2-GPIO32-Pad10)*%
X68502460Y-73659813D03*
%TO.P,U2,11,GPIO35_11*%
%TO.N,unconnected-(U2-GPIO35-Pad11)*%
X68502460Y-71119813D03*
%TO.P,U2,12,GPIO34_12*%
%TO.N,unconnected-(U2-GPIO34-Pad12)*%
X68502460Y-68579813D03*
%TO.P,U2,13,GPIO39_13*%
%TO.N,unconnected-(U2-GPIO39-Pad13)*%
X68502460Y-66039813D03*
%TO.P,U2,14,GPIO36_14*%
%TO.N,unconnected-(U2-GPIO36-Pad14)*%
X68502460Y-63499813D03*
%TO.P,U2,15,EN_15*%
%TO.N,unconnected-(U2-EN-Pad15)*%
X68502460Y-60959813D03*
%TO.P,U2,16,3.3v_16*%
%TO.N,Net-(U1-VIN)*%
X93902460Y-96519813D03*
%TO.P,U2,17,GND_17*%
%TO.N,GND*%
X93902460Y-93979813D03*
%TO.P,U2,18,GPIO15_18*%
%TO.N,unconnected-(U2-GPIO15-Pad18)*%
X93902460Y-91439813D03*
%TO.P,U2,19,GPIO2_19*%
%TO.N,unconnected-(U2-GPIO2-Pad19)*%
X93902460Y-88899813D03*
%TO.P,U2,20,GPIO4_20*%
%TO.N,unconnected-(U2-GPIO4-Pad20)*%
X93902460Y-86359813D03*
%TO.P,U2,21,GPIO16_21*%
%TO.N,unconnected-(U2-GPIO16-Pad21)*%
X93902460Y-83819813D03*
%TO.P,U2,22,GPIO17_22*%
%TO.N,unconnected-(U2-GPIO17-Pad22)*%
X93902460Y-81279813D03*
%TO.P,U2,23,GPIO5_23*%
%TO.N,unconnected-(U2-GPIO5-Pad23)*%
X93902460Y-78739813D03*
%TO.P,U2,24,GPIO18_24*%
%TO.N,unconnected-(U2-GPIO18-Pad24)*%
X93902460Y-76199813D03*
%TO.P,U2,25,GPIO19_25*%
%TO.N,unconnected-(U2-GPIO19-Pad25)*%
X93902460Y-73659813D03*
%TO.P,U2,26,GPIO21_26*%
%TO.N,Net-(U1-SDA)*%
X93902460Y-71119813D03*
%TO.P,U2,27,GPIO3_27*%
%TO.N,unconnected-(U2-GPIO3-Pad27)*%
X93902460Y-68579813D03*
%TO.P,U2,28,GPIO1_28*%
%TO.N,unconnected-(U2-GPIO1-Pad28)*%
X93902460Y-66039813D03*
%TO.P,U2,29,GPIO22_29*%
%TO.N,Net-(U1-SCL)*%
X93902460Y-63499813D03*
%TO.P,U2,30,GPIO23_30*%
%TO.N,unconnected-(U2-GPIO23-Pad30)*%
X93902460Y-60959813D03*
%TD*%
D15*
%TO.P,U1,P4*%
%TO.N,N/C*%
X128820000Y-89280000D03*
%TO.P,U1,P3*%
X108500000Y-89280000D03*
%TO.P,U1,P2*%
X128820000Y-71500000D03*
%TO.P,U1,P1*%
X108500000Y-71500000D03*
D16*
%TO.P,U1,JP2_6,CS_JP2_6*%
%TO.N,unconnected-(U1-CS-PadJP2_6)*%
X125010000Y-71500000D03*
%TO.P,U1,JP2_5,DI_JP2_5*%
%TO.N,unconnected-(U1-DI-PadJP2_5)*%
X122470000Y-71500000D03*
%TO.P,U1,JP2_4,~{RST}_JP2_4*%
%TO.N,unconnected-(U1-~{RST}-PadJP2_4)*%
X119930000Y-71500000D03*
%TO.P,U1,JP2_3,P1_JP2_3*%
%TO.N,unconnected-(U1-P1-PadJP2_3)*%
X117390000Y-71500000D03*
%TO.P,U1,JP2_2,P0_JP2_2*%
%TO.N,unconnected-(U1-P0-PadJP2_2)*%
X114850000Y-71500000D03*
%TO.P,U1,JP2_1,BT_JP2_1*%
%TO.N,unconnected-(U1-BT-PadJP2_1)*%
X112310000Y-71500000D03*
%TO.P,U1,JP1_6,~{INT}_JP1_6*%
%TO.N,unconnected-(U1-~{INT}-PadJP1_6)*%
X125010000Y-89280000D03*
%TO.P,U1,JP1_5,SDA_JP1_5*%
%TO.N,Net-(U1-SDA)*%
X122470000Y-89280000D03*
%TO.P,U1,JP1_4,SCL_JP1_4*%
%TO.N,Net-(U1-SCL)*%
X119930000Y-89280000D03*
%TO.P,U1,JP1_3,GND_JP1_3*%
%TO.N,GND*%
X117390000Y-89280000D03*
%TO.P,U1,JP1_2,3VO_JP1_2*%
%TO.N,unconnected-(U1-3VO-PadJP1_2)*%
X114850000Y-89280000D03*
%TO.P,U1,JP1_1,VIN_JP1_1*%
%TO.N,Net-(U1-VIN)*%
X112310000Y-89280000D03*
%TD*%
%TO.N,GND*%
D17*
X98780000Y-59131989D02*
X98780000Y-58188168D01*
X100423011Y-60775000D02*
X98780000Y-59131989D01*
X101898696Y-60775000D02*
X100423011Y-60775000D01*
X103000000Y-57490000D02*
X103000000Y-59673696D01*
X103000000Y-59673696D02*
X101898696Y-60775000D01*
%TO.N,Net-(U1-VIN)*%
X97218696Y-57490000D02*
X95993696Y-56265000D01*
X101450000Y-57490000D02*
X97218696Y-57490000D01*
%TO.N,Net-(U1-SCL)*%
X122962500Y-88091000D02*
X121846686Y-88091000D01*
X123659000Y-88787500D02*
X122962500Y-88091000D01*
X123659000Y-89772500D02*
X123659000Y-88787500D01*
X122962500Y-90469000D02*
X123659000Y-89772500D01*
X121846686Y-88091000D02*
X97255499Y-63499813D01*
X97255499Y-63499813D02*
X93902460Y-63499813D01*
X121119000Y-90469000D02*
X122962500Y-90469000D01*
X119930000Y-89280000D02*
X121119000Y-90469000D01*
%TO.N,Net-(U1-SDA)*%
X104309813Y-71119813D02*
X93902460Y-71119813D01*
X122470000Y-89280000D02*
X104309813Y-71119813D01*
%TO.N,Net-(U1-VIN)*%
X111831687Y-96519813D02*
X93902460Y-96519813D01*
X113499000Y-88091000D02*
X117882500Y-88091000D01*
X117882500Y-88091000D02*
X118579000Y-88787500D01*
X112310000Y-89280000D02*
X113499000Y-88091000D01*
X118579000Y-88787500D02*
X118579000Y-89772500D01*
X118579000Y-89772500D02*
X111831687Y-96519813D01*
%TO.N,GND*%
X112690187Y-93979813D02*
X93902460Y-93979813D01*
X117390000Y-89280000D02*
X112690187Y-93979813D01*
%TO.N,Net-(U1-VIN)*%
X102345000Y-53210000D02*
X101320000Y-54235000D01*
X103704744Y-53210000D02*
X102345000Y-53210000D01*
X108045000Y-57550256D02*
X103704744Y-53210000D01*
X108045000Y-60235000D02*
X108045000Y-57550256D01*
%TO.N,Net-(D1-A)*%
X106220000Y-64110000D02*
X106095000Y-64235000D01*
X106220000Y-60235000D02*
X106220000Y-64110000D01*
%TO.N,GND*%
X104220000Y-63143168D02*
X104220000Y-64235000D01*
X103000000Y-61923168D02*
X104220000Y-63143168D01*
X103220000Y-57270000D02*
X103000000Y-57490000D01*
X103220000Y-54235000D02*
X103220000Y-57270000D01*
%TO.N,Net-(U1-VIN)*%
X101320000Y-54235000D02*
X101320000Y-57360000D01*
X101320000Y-57360000D02*
X101450000Y-57490000D01*
%TO.N,GND*%
X92652460Y-63059918D02*
X92652460Y-92729813D01*
X92652460Y-92729813D02*
X93902460Y-93979813D01*
X93274565Y-62437813D02*
X92652460Y-63059918D01*
X94530355Y-62437813D02*
X93274565Y-62437813D01*
X98780000Y-58188168D02*
X94530355Y-62437813D01*
X103000000Y-57490000D02*
X103000000Y-61923168D01*
%TO.N,Net-(U1-VIN)*%
X95993696Y-56265000D02*
X92252460Y-60006236D01*
X92252460Y-94869813D02*
X93902460Y-96519813D01*
X101450000Y-57490000D02*
X101450000Y-60000000D01*
X92252460Y-60006236D02*
X92252460Y-94869813D01*
%TD*%
M02*
