%TF.GenerationSoftware,KiCad,Pcbnew,10.0.4*%
%TF.CreationDate,2026-07-06T10:54:50+05:30*%
%TF.ProjectId,esp32_bno085_shield,65737033-325f-4626-9e6f-3038355f7368,rev?*%
%TF.SameCoordinates,Original*%
%TF.FileFunction,Soldermask,Bot*%
%TF.FilePolarity,Negative*%
%FSLAX46Y46*%
G04 Gerber Fmt 4.6, Leading zero omitted, Abs format (unit mm)*
G04 Created by KiCad (PCBNEW 10.0.4) date 2026-07-06 10:54:50*
%MOMM*%
%LPD*%
G01*
G04 APERTURE LIST*
%ADD10C,3.200000*%
%ADD11O,1.900000X1.524000*%
%ADD12C,3.404000*%
%ADD13C,1.982000*%
G04 APERTURE END LIST*
D10*
%TO.C,H1*%
X132500000Y-109500000D03*
%TD*%
%TO.C,H4*%
X63000000Y-109500000D03*
%TD*%
%TO.C,H3*%
X132500000Y-52000000D03*
%TD*%
%TO.C,H2*%
X63000000Y-52000000D03*
%TD*%
D11*
%TO.C,U2*%
X68502460Y-96519813D03*
X68502460Y-93979813D03*
X68502460Y-91439813D03*
X68502460Y-88899813D03*
X68502460Y-86359813D03*
X68502460Y-83819813D03*
X68502460Y-81279813D03*
X68502460Y-78739813D03*
X68502460Y-76199813D03*
X68502460Y-73659813D03*
X68502460Y-71119813D03*
X68502460Y-68579813D03*
X68502460Y-66039813D03*
X68502460Y-63499813D03*
X68502460Y-60959813D03*
X93902460Y-96519813D03*
X93902460Y-93979813D03*
X93902460Y-91439813D03*
X93902460Y-88899813D03*
X93902460Y-86359813D03*
X93902460Y-83819813D03*
X93902460Y-81279813D03*
X93902460Y-78739813D03*
X93902460Y-76199813D03*
X93902460Y-73659813D03*
X93902460Y-71119813D03*
X93902460Y-68579813D03*
X93902460Y-66039813D03*
X93902460Y-63499813D03*
X93902460Y-60959813D03*
%TD*%
D12*
%TO.C,U1*%
X128820000Y-89280000D03*
X108500000Y-89280000D03*
X128820000Y-71500000D03*
X108500000Y-71500000D03*
D13*
X125010000Y-71500000D03*
X122470000Y-71500000D03*
X119930000Y-71500000D03*
X117390000Y-71500000D03*
X114850000Y-71500000D03*
X112310000Y-71500000D03*
X125010000Y-89280000D03*
X122470000Y-89280000D03*
X119930000Y-89280000D03*
X117390000Y-89280000D03*
X114850000Y-89280000D03*
X112310000Y-89280000D03*
%TD*%
M02*
