%TF.GenerationSoftware,KiCad,Pcbnew,10.0.4*%
%TF.CreationDate,2026-07-06T10:54:50+05:30*%
%TF.ProjectId,esp32_bno085_shield,65737033-325f-4626-9e6f-3038355f7368,rev?*%
%TF.SameCoordinates,Original*%
%TF.FileFunction,Copper,L2,Bot*%
%TF.FilePolarity,Positive*%
%FSLAX46Y46*%
G04 Gerber Fmt 4.6, Leading zero omitted, Abs format (unit mm)*
G04 Created by KiCad (PCBNEW 10.0.4) date 2026-07-06 10:54:50*
%MOMM*%
%LPD*%
G01*
G04 APERTURE LIST*
%TA.AperFunction,ComponentPad*%
%ADD10O,1.900000X1.524000*%
%TD*%
%TA.AperFunction,ComponentPad*%
%ADD11C,3.200000*%
%TD*%
%TA.AperFunction,ComponentPad*%
%ADD12C,1.778000*%
%TD*%
G04 APERTURE END LIST*
D10*
%TO.P,U2,1,VIN_1*%
%TO.N,unconnected-(U2-VIN-Pad1)*%
X68502460Y-96519813D03*
%TO.P,U2,2,GND_2*%
%TO.N,unconnected-(U2-GND-Pad2)*%
X68502460Y-93979813D03*
%TO.P,U2,3,GPIO13_3*%
%TO.N,unconnected-(U2-GPIO13-Pad3)*%
X68502460Y-91439813D03*
%TO.P,U2,4,GPIO12_4*%
%TO.N,unconnected-(U2-GPIO12-Pad4)*%
X68502460Y-88899813D03*
%TO.P,U2,5,GPIO14_5*%
%TO.N,unconnected-(U2-GPIO14-Pad5)*%
X68502460Y-86359813D03*
%TO.P,U2,6,GPIO27_6*%
%TO.N,unconnected-(U2-GPIO27-Pad6)*%
X68502460Y-83819813D03*
%TO.P,U2,7,GPIO26_7*%
%TO.N,unconnected-(U2-GPIO26-Pad7)*%
X68502460Y-81279813D03*
%TO.P,U2,8,GPIO25_8*%
%TO.N,unconnected-(U2-GPIO25-Pad8)*%
X68502460Y-78739813D03*
%TO.P,U2,9,GPIO33_9*%
%TO.N,unconnected-(U2-GPIO33-Pad9)*%
X68502460Y-76199813D03*
%TO.P,U2,10,GPIO32_10*%
%TO.N,unconnected-(U2-GPIO32-Pad10)*%
X68502460Y-73659813D03*
%TO.P,U2,11,GPIO35_11*%
%TO.N,unconnected-(U2-GPIO35-Pad11)*%
X68502460Y-71119813D03*
%TO.P,U2,12,GPIO34_12*%
%TO.N,unconnected-(U2-GPIO34-Pad12)*%
X68502460Y-68579813D03*
%TO.P,U2,13,GPIO39_13*%
%TO.N,unconnected-(U2-GPIO39-Pad13)*%
X68502460Y-66039813D03*
%TO.P,U2,14,GPIO36_14*%
%TO.N,unconnected-(U2-GPIO36-Pad14)*%
X68502460Y-63499813D03*
%TO.P,U2,15,EN_15*%
%TO.N,unconnected-(U2-EN-Pad15)*%
X68502460Y-60959813D03*
%TO.P,U2,16,3.3v_16*%
%TO.N,Net-(U1-VIN)*%
X93902460Y-96519813D03*
%TO.P,U2,17,GND_17*%
%TO.N,GND*%
X93902460Y-93979813D03*
%TO.P,U2,18,GPIO15_18*%
%TO.N,unconnected-(U2-GPIO15-Pad18)*%
X93902460Y-91439813D03*
%TO.P,U2,19,GPIO2_19*%
%TO.N,unconnected-(U2-GPIO2-Pad19)*%
X93902460Y-88899813D03*
%TO.P,U2,20,GPIO4_20*%
%TO.N,unconnected-(U2-GPIO4-Pad20)*%
X93902460Y-86359813D03*
%TO.P,U2,21,GPIO16_21*%
%TO.N,unconnected-(U2-GPIO16-Pad21)*%
X93902460Y-83819813D03*
%TO.P,U2,22,GPIO17_22*%
%TO.N,unconnected-(U2-GPIO17-Pad22)*%
X93902460Y-81279813D03*
%TO.P,U2,23,GPIO5_23*%
%TO.N,unconnected-(U2-GPIO5-Pad23)*%
X93902460Y-78739813D03*
%TO.P,U2,24,GPIO18_24*%
%TO.N,unconnected-(U2-GPIO18-Pad24)*%
X93902460Y-76199813D03*
%TO.P,U2,25,GPIO19_25*%
%TO.N,unconnected-(U2-GPIO19-Pad25)*%
X93902460Y-73659813D03*
%TO.P,U2,26,GPIO21_26*%
%TO.N,Net-(U1-SDA)*%
X93902460Y-71119813D03*
%TO.P,U2,27,GPIO3_27*%
%TO.N,unconnected-(U2-GPIO3-Pad27)*%
X93902460Y-68579813D03*
%TO.P,U2,28,GPIO1_28*%
%TO.N,unconnected-(U2-GPIO1-Pad28)*%
X93902460Y-66039813D03*
%TO.P,U2,29,GPIO22_29*%
%TO.N,Net-(U1-SCL)*%
X93902460Y-63499813D03*
%TO.P,U2,30,GPIO23_30*%
%TO.N,unconnected-(U2-GPIO23-Pad30)*%
X93902460Y-60959813D03*
%TD*%
D11*
%TO.P,U1,P4*%
%TO.N,N/C*%
X128820000Y-89280000D03*
%TO.P,U1,P3*%
X108500000Y-89280000D03*
%TO.P,U1,P2*%
X128820000Y-71500000D03*
%TO.P,U1,P1*%
X108500000Y-71500000D03*
D12*
%TO.P,U1,JP2_6,CS_JP2_6*%
%TO.N,unconnected-(U1-CS-PadJP2_6)*%
X125010000Y-71500000D03*
%TO.P,U1,JP2_5,DI_JP2_5*%
%TO.N,unconnected-(U1-DI-PadJP2_5)*%
X122470000Y-71500000D03*
%TO.P,U1,JP2_4,~{RST}_JP2_4*%
%TO.N,unconnected-(U1-~{RST}-PadJP2_4)*%
X119930000Y-71500000D03*
%TO.P,U1,JP2_3,P1_JP2_3*%
%TO.N,unconnected-(U1-P1-PadJP2_3)*%
X117390000Y-71500000D03*
%TO.P,U1,JP2_2,P0_JP2_2*%
%TO.N,unconnected-(U1-P0-PadJP2_2)*%
X114850000Y-71500000D03*
%TO.P,U1,JP2_1,BT_JP2_1*%
%TO.N,unconnected-(U1-BT-PadJP2_1)*%
X112310000Y-71500000D03*
%TO.P,U1,JP1_6,~{INT}_JP1_6*%
%TO.N,unconnected-(U1-~{INT}-PadJP1_6)*%
X125010000Y-89280000D03*
%TO.P,U1,JP1_5,SDA_JP1_5*%
%TO.N,Net-(U1-SDA)*%
X122470000Y-89280000D03*
%TO.P,U1,JP1_4,SCL_JP1_4*%
%TO.N,Net-(U1-SCL)*%
X119930000Y-89280000D03*
%TO.P,U1,JP1_3,GND_JP1_3*%
%TO.N,GND*%
X117390000Y-89280000D03*
%TO.P,U1,JP1_2,3VO_JP1_2*%
%TO.N,unconnected-(U1-3VO-PadJP1_2)*%
X114850000Y-89280000D03*
%TO.P,U1,JP1_1,VIN_JP1_1*%
%TO.N,Net-(U1-VIN)*%
X112310000Y-89280000D03*
%TD*%
M02*
