M48
; DRILL file KiCad 10.0.4 date 2026-07-06T10:54:30
; FORMAT={3:3/ absolute / metric / suppress leading zeros}
; #@! TF.CreationDate,2026-07-06T10:54:30+05:30
; #@! TF.GenerationSoftware,Kicad,Pcbnew,10.0.4
; #@! TF.FileFunction,Plated,1,2,PTH
FMAT,2
METRIC,TZ
; #@! TA.AperFunction,Plated,PTH,ComponentDrill
T1C0.800
; #@! TA.AperFunction,Plated,PTH,ComponentDrill
T2C1.000
; #@! TA.AperFunction,Plated,PTH,ComponentDrill
T3C2.500
%
G90
G05
T1
X68502Y-60960
X68502Y-63500
X68502Y-66040
X68502Y-68580
X68502Y-71120
X68502Y-73660
X68502Y-76200
X68502Y-78740
X68502Y-81280
X68502Y-83820
X68502Y-86360
X68502Y-88900
X68502Y-91440
X68502Y-93980
X68502Y-96520
X93902Y-60960
X93902Y-63500
X93902Y-66040
X93902Y-68580
X93902Y-71120
X93902Y-73660
X93902Y-76200
X93902Y-78740
X93902Y-81280
X93902Y-83820
X93902Y-86360
X93902Y-88900
X93902Y-91440
X93902Y-93980
X93902Y-96520
T2
X112310Y-71500
X112310Y-89280
X114850Y-71500
X114850Y-89280
X117390Y-71500
X117390Y-89280
X119930Y-71500
X119930Y-89280
X122470Y-71500
X122470Y-89280
X125010Y-71500
X125010Y-89280
T3
X108500Y-71500
X108500Y-89280
X128820Y-71500
X128820Y-89280
M30
